<?xml version="1.0" standalone="no"?>
<!DOCTYPE svg PUBLIC "-//W3C//DTD SVG 20010904//EN"
 "http://www.w3.org/TR/2001/REC-SVG-20010904/DTD/svg10.dtd">
<svg version="1.0" xmlns="http://www.w3.org/2000/svg"
 width="1024.000000pt" height="1024.000000pt" viewBox="0 0 1024.000000 1024.000000"
 preserveAspectRatio="xMidYMid meet">
<metadata>
Created by potrace 1.11, written by Peter Selinger 2001-2013
</metadata>
<g transform="translate(0.000000,1024.000000) scale(0.100000,-0.100000)"
fill="#000000" stroke="none">
<path d="M1425 9295 c-402 -74 -710 -385 -781 -790 -21 -120 -21 -5310 0
-5430 62 -353 309 -642 647 -755 151 -51 112 -50 1796 -50 l1573 0 6 -28 c26
-104 180 -415 291 -585 153 -237 377 -488 591 -665 319 -262 720 -465 1120
-566 251 -63 400 -80 692 -80 271 0 383 11 605 59 853 183 1589 757 1974 1540
145 294 228 564 277 900 27 184 25 583 -4 770 -76 487 -253 910 -549 1308
l-73 99 0 1701 c0 1824 1 1775 -50 1926 -113 338 -402 585 -755 647 -114 20
-7251 19 -7360 -1z m7347 -658 c65 -32 121 -89 152 -156 19 -41 21 -67 24
-248 l3 -203 -3840 0 -3841 0 0 183 c0 204 9 256 59 324 39 54 91 93 154 115
50 17 216 17 3642 15 l3590 -2 57 -28z m178 -2132 l0 -884 -88 53 c-239 146
-513 260 -793 330 -115 28 -325 66 -370 66 -22 0 -29 5 -29 20 0 20 -7 20
-1920 20 l-1920 0 0 -320 0 -320 874 -2 874 -3 -85 -70 c-123 -101 -356 -344
-443 -463 l-75 -102 -572 0 -573 0 0 -320 0 -320 416 0 c392 0 416 -1 409 -17
-50 -124 -117 -386 -144 -564 -36 -238 -38 -453 -4 -662 l6 -37 -1504 2 -1504
3 -57 28 c-65 32 -121 89 -152 156 l-21 46 -3 2123 -2 2122 3840 0 3840 0 0
-885z m-1255 -1070 c238 -37 434 -99 650 -204 289 -141 528 -330 743 -586 323
-386 512 -910 512 -1425 0 -515 -189 -1039 -512 -1425 -215 -256 -454 -445
-743 -586 -326 -158 -613 -224 -985 -224 -372 0 -659 66 -985 224 -289 141
-528 330 -743 586 -324 386 -512 910 -512 1425 0 515 188 1039 512 1425 88
106 236 252 328 326 308 247 723 422 1105 468 50 6 104 13 120 15 65 9 416 -4
510 -19z"/>
<path d="M2550 5790 l0 -320 320 0 320 0 0 320 0 320 -320 0 -320 0 0 -320z"/>
<path d="M2550 4510 l0 -320 320 0 320 0 0 320 0 320 -320 0 -320 0 0 -320z"/>
<path d="M7040 3860 l0 -960 640 0 640 0 0 320 0 320 -320 0 -320 0 0 640 0
640 -320 0 -320 0 0 -960z"/>
</g>
</svg>
